<svg width="95" height="39" viewBox="0 0 95 39" fill="none" xmlns="http://www.w3.org/2000/svg">
<path d="M0 0H87C91.4183 0 95 3.58172 95 8V39H0V0Z" fill="white"/>
<path d="M21.2549 26.2727H22.0702V25.1641C24.1583 25.0199 25.3316 23.7869 25.3316 22.2358C25.3316 20.3267 23.5219 19.7102 22.4679 19.4318L22.0702 19.3224V15.7876C23.1242 15.892 23.8898 16.4588 23.9992 17.3636H25.1924C25.1427 15.9119 23.8699 14.8082 22.0702 14.6889V13.5455H21.2549V14.7038C19.5496 14.8778 18.2719 15.9616 18.2719 17.5227C18.2719 18.8949 19.2662 19.7102 20.8571 20.1676L21.2549 20.282V24.0455C20.2108 23.9361 19.3557 23.3991 19.2662 22.375H17.9935C18.1078 23.9411 19.301 25.0348 21.2549 25.1641V26.2727ZM22.0702 24.0455V20.5156L22.11 20.5256C23.1838 20.8239 24.1384 21.2017 24.1384 22.2159C24.1384 23.2152 23.2733 23.9112 22.0702 24.0455ZM21.2549 19.1037C20.4992 18.8899 19.4651 18.4723 19.4651 17.4631C19.4651 16.603 20.1611 15.9467 21.2549 15.8026V19.1037ZM34.1368 14.8182H32.9038L30.3584 16.5085V17.7614L32.8442 16.1108H32.9038V25H34.1368V14.8182ZM37.0585 25.0795C37.5507 25.0795 37.9534 24.6768 37.9534 24.1847C37.9534 23.6925 37.5507 23.2898 37.0585 23.2898C36.5663 23.2898 36.1636 23.6925 36.1636 24.1847C36.1636 24.6768 36.5663 25.0795 37.0585 25.0795ZM42.9048 14.6591C40.8366 14.6392 39.5042 16.1903 39.5042 18.0795C39.5042 20.0483 40.9559 21.4602 42.7059 21.4602C43.7599 21.4602 44.6548 20.9432 45.2116 20.108H45.2911C45.2911 22.6136 44.3167 24.0455 42.7457 24.0455C41.6718 24.0455 41.0155 23.3693 40.7968 22.4347H39.5837C39.8224 24.0455 41.0354 25.1392 42.7457 25.1392C45.0326 25.1392 46.4445 23.1108 46.4445 19.4915C46.4445 15.733 44.5752 14.679 42.9048 14.6591ZM42.9048 15.7528C44.1775 15.7528 45.1121 16.8466 45.1121 18.0597C45.1121 19.2727 44.1178 20.3665 42.865 20.3665C41.6121 20.3665 40.6974 19.3523 40.6974 18.0795C40.6974 16.7869 41.6519 15.7528 42.9048 15.7528ZM51.5003 25.1392C53.5585 25.1641 54.9009 23.6129 54.9009 21.7188C54.9009 19.75 53.4442 18.3381 51.6992 18.3381C50.6501 18.3381 49.7503 18.8501 49.1935 19.6903H49.1139C49.1189 17.1896 50.0834 15.7528 51.6594 15.7528C52.7332 15.7528 53.3795 16.429 53.6082 17.3636H54.8213C54.5727 15.7628 53.3696 14.6591 51.6594 14.6591C49.3675 14.6591 47.9605 16.6875 47.9605 20.3068C47.9605 24.0703 49.8298 25.1193 51.5003 25.1392ZM51.5003 24.0455C50.2226 24.0455 49.2879 22.9567 49.2929 21.7386C49.2979 20.5206 50.2773 19.4318 51.5401 19.4318C52.7879 19.4318 53.7077 20.456 53.7077 21.7188C53.7077 23.0114 52.7482 24.0455 51.5003 24.0455Z" fill="#757575"/>
<path d="M82.5 22.5L77.75 17.75L75.25 20.25L71.5 16.5" stroke="#F5450D" stroke-linecap="round" stroke-linejoin="round"/>
<path d="M79.5 22.5H82.5V19.5" stroke="#F5450D" stroke-linecap="round" stroke-linejoin="round"/>
</svg>
