<svg width="95" height="39" viewBox="0 0 95 39" fill="none" xmlns="http://www.w3.org/2000/svg">
<rect width="95" height="39" fill="white"/>
<path d="M20.6396 26.2727H21.455V25.1641C23.543 25.0199 24.7163 23.7869 24.7163 22.2358C24.7163 20.3267 22.9067 19.7102 21.8527 19.4318L21.455 19.3224V15.7876C22.5089 15.892 23.2746 16.4588 23.3839 17.3636H24.5771C24.5274 15.9119 23.2547 14.8082 21.455 14.6889V13.5455H20.6396V14.7038C18.9344 14.8778 17.6567 15.9616 17.6567 17.5227C17.6567 18.8949 18.651 19.7102 20.2419 20.1676L20.6396 20.282V24.0455C19.5956 23.9361 18.7405 23.3991 18.651 22.375H17.3783C17.4926 23.9411 18.6858 25.0348 20.6396 25.1641V26.2727ZM21.455 24.0455V20.5156L21.4947 20.5256C22.5686 20.8239 23.5232 21.2017 23.5232 22.2159C23.5232 23.2152 22.6581 23.9112 21.455 24.0455ZM20.6396 19.1037C19.8839 18.8899 18.8499 18.4723 18.8499 17.4631C18.8499 16.603 19.5459 15.9467 20.6396 15.8026V19.1037ZM33.263 25.1392C35.5102 25.1392 36.8028 23.2351 36.8028 19.9091C36.8028 16.608 35.4903 14.679 33.263 14.679C31.0358 14.679 29.7233 16.608 29.7233 19.9091C29.7233 23.2351 31.0159 25.1392 33.263 25.1392ZM33.263 24.0455C31.7815 24.0455 30.9165 22.5589 30.9165 19.9091C30.9165 17.2642 31.7915 15.7528 33.263 15.7528C34.7346 15.7528 35.6096 17.2642 35.6096 19.9091C35.6096 22.5589 34.7446 24.0455 33.263 24.0455ZM38.9316 25.0795C39.4237 25.0795 39.8264 24.6768 39.8264 24.1847C39.8264 23.6925 39.4237 23.2898 38.9316 23.2898C38.4394 23.2898 38.0367 23.6925 38.0367 24.1847C38.0367 24.6768 38.4394 25.0795 38.9316 25.0795ZM44.5976 25.1392C46.8447 25.1392 48.1374 23.2351 48.1374 19.9091C48.1374 16.608 46.8249 14.679 44.5976 14.679C42.3703 14.679 41.0578 16.608 41.0578 19.9091C41.0578 23.2351 42.3504 25.1392 44.5976 25.1392ZM44.5976 24.0455C43.116 24.0455 42.251 22.5589 42.251 19.9091C42.251 17.2642 43.126 15.7528 44.5976 15.7528C46.0692 15.7528 46.9442 17.2642 46.9442 19.9091C46.9442 22.5589 46.0791 24.0455 44.5976 24.0455ZM49.7913 25H51.0839L55.618 15.9716V14.8182H49.0953V15.9119H54.3453V15.9915L49.7913 25Z" fill="#757575"/>
<path d="M82.5 19L77.75 23.75L75.25 21.25L71.5 25" stroke="#07D635" stroke-linecap="round" stroke-linejoin="round"/>
<path d="M79.5 19H82.5V22" stroke="#07D635" stroke-linecap="round" stroke-linejoin="round"/>
</svg>
